<?xml version="1.0" encoding="UTF-8" standalone="no"?>
<!-- Created with Inkscape (http://www.inkscape.org/) -->

<svg
   xmlns:dc="http://purl.org/dc/elements/1.1/"
   xmlns:cc="http://creativecommons.org/ns#"
   xmlns:rdf="http://www.w3.org/1999/02/22-rdf-syntax-ns#"
   xmlns:svg="http://www.w3.org/2000/svg"
   xmlns="http://www.w3.org/2000/svg"
   xmlns:sodipodi="http://sodipodi.sourceforge.net/DTD/sodipodi-0.dtd"
   xmlns:inkscape="http://www.inkscape.org/namespaces/inkscape"
   width="20.646mm"
   height="22.330999mm"
   viewBox="0 0 20.646 22.330999"
   version="1.1"
   id="svg896"
   inkscape:version="0.92.5 (2060ec1f9f, 2020-04-08)"
   sodipodi:docname="SplashOpenFileButton.svg">
  <defs
     id="defs890" />
  <sodipodi:namedview
     id="base"
     pagecolor="#ffffff"
     bordercolor="#666666"
     borderopacity="1.0"
     inkscape:pageopacity="0.0"
     inkscape:pageshadow="2"
     inkscape:zoom="7.9195959"
     inkscape:cx="41.01574"
     inkscape:cy="40.061554"
     inkscape:document-units="mm"
     inkscape:current-layer="g989"
     showgrid="false"
     inkscape:pagecheckerboard="true"
     inkscape:window-width="1920"
     inkscape:window-height="1043"
     inkscape:window-x="0"
     inkscape:window-y="102"
     inkscape:window-maximized="1" />
  <metadata
     id="metadata893">
    <rdf:RDF>
      <cc:Work
         rdf:about="">
        <dc:format>image/svg+xml</dc:format>
        <dc:type
           rdf:resource="http://purl.org/dc/dcmitype/StillImage" />
        <dc:title></dc:title>
      </cc:Work>
    </rdf:RDF>
  </metadata>
  <g
     inkscape:label="Layer 1"
     inkscape:groupmode="layer"
     id="layer1"
     transform="translate(0,-274.669)">
    <g
       transform="translate(-141.99601,40.833996)"
       id="g989">
      <path
         inkscape:transform-center-y="-1.9919126e-06"
         inkscape:transform-center-x="-3.1652489e-06"
         transform="matrix(-0.18776431,0.1084041,-0.10840577,-0.18776142,189.20963,287.21522)"
         style="fill:#353535;fill-opacity:0;stroke:#ff5400;stroke-width:2.99804091;stroke-miterlimit:4;stroke-dasharray:none;stroke-opacity:1"
         d="m 74.999998,296.99999 c -6.495191,3.75 -43.50481,3.74999 -50,-1e-5 C 18.504808,293.24998 -3.6602546e-7,261.19871 0,253.69871 c 3.6602558e-7,-7.5 18.504811,-39.55127 25.000002,-43.30127 6.495191,-3.75 43.50481,-3.74999 50,1e-5 6.49519,3.75 24.999998,35.80127 24.999998,43.30127 0,7.5 -18.504811,39.55127 -25.000002,43.30127 z"
         inkscape:randomized="0"
         inkscape:rounded="0.15"
         inkscape:flatsided="true"
         sodipodi:arg2="1.5707964"
         sodipodi:arg1="1.0471976"
         sodipodi:r2="43.30127"
         sodipodi:r1="50"
         sodipodi:cy="253.69872"
         sodipodi:cx="50"
         sodipodi:sides="6"
         id="path3717-3-9"
         sodipodi:type="star" />
      <g
         style="fill:#ffffff;fill-opacity:1"
         transform="matrix(0.175,0,0,0.175,147.069,239.75)"
         id="g1189">
        <g
           style="fill:#ffffff;fill-opacity:1"
           id="g1130">
          <path
             style="fill:#ffffff;fill-opacity:1"
             inkscape:connector-curvature="0"
             d="M 57.49,27 H 54 V 20.732 C 54,19.226 52.774,18 51.268,18 H 48 v -2.414 l -0.495,-0.495 c -0.001,0 -0.001,-10e-4 -0.001,-0.002 L 40.208,7.793 32.414,0 H 8 V 11 H 2.732 C 1.226,11 0,12.226 0,13.732 v 43.687 h 0.006 c -0.005,0.563 0.17,1.114 0.522,1.575 C 1.018,59.634 1.76,60 2.565,60 h 44.759 c 1.156,0 2.174,-0.779 2.45,-1.813 L 60,30.149 V 29.972 C 60,28.25 58.944,27 57.49,27 Z M 51.268,20 C 51.671,20 52,20.328 52,20.732 V 27 H 48 V 20 Z M 33,3.415 44.586,15 H 33 Z M 10,2 h 21 v 15 h 15 v 1 9 H 12.731 c -0.143,0 -0.284,0.012 -0.422,0.035 -0.974,0.162 -1.786,0.872 -2.028,1.778 L 10,29.585 V 11 Z M 2,13.732 C 2,13.328 2.329,13 2.732,13 H 8 V 35.035 L 2,51.399 Z M 47.869,57.583 C 47.803,57.828 47.579,58 47.324,58 H 2.565 C 2.322,58 2.18,57.861 2.117,57.778 2.054,57.696 1.957,57.522 1.994,57.37 L 8,40.898 v 0.005 l 4.16,-11.404 0.026,-0.082 C 12.252,29.172 12.477,29 12.731,29 H 46 h 2 6 3.49 c 0.38,0 0.477,0.546 0.502,0.819 z"
             id="path1122" />
          <path
             style="fill:#ffffff;fill-opacity:1"
             inkscape:connector-curvature="0"
             d="m 16,17 h 10 c 0.552,0 1,-0.447 1,-1 0,-0.553 -0.448,-1 -1,-1 H 16 c -0.552,0 -1,0.447 -1,1 0,0.553 0.448,1 1,1 z"
             id="path1124" />
          <path
             style="fill:#ffffff;fill-opacity:1"
             inkscape:connector-curvature="0"
             d="M 16,10 H 26 C 26.552,10 27,9.553 27,9 27,8.447 26.552,8 26,8 H 16 c -0.552,0 -1,0.447 -1,1 0,0.553 0.448,1 1,1 z"
             id="path1126" />
          <path
             style="fill:#ffffff;fill-opacity:1"
             inkscape:connector-curvature="0"
             d="m 16,24 h 24 c 0.552,0 1,-0.447 1,-1 0,-0.553 -0.448,-1 -1,-1 H 16 c -0.552,0 -1,0.447 -1,1 0,0.553 0.448,1 1,1 z"
             id="path1128" />
        </g>
        <g
           style="fill:#ffffff;fill-opacity:1"
           id="g1132" />
        <g
           style="fill:#ffffff;fill-opacity:1"
           id="g1134" />
        <g
           style="fill:#ffffff;fill-opacity:1"
           id="g1136" />
        <g
           style="fill:#ffffff;fill-opacity:1"
           id="g1138" />
        <g
           style="fill:#ffffff;fill-opacity:1"
           id="g1140" />
        <g
           style="fill:#ffffff;fill-opacity:1"
           id="g1142" />
        <g
           style="fill:#ffffff;fill-opacity:1"
           id="g1144" />
        <g
           style="fill:#ffffff;fill-opacity:1"
           id="g1146" />
        <g
           style="fill:#ffffff;fill-opacity:1"
           id="g1148" />
        <g
           style="fill:#ffffff;fill-opacity:1"
           id="g1150" />
        <g
           style="fill:#ffffff;fill-opacity:1"
           id="g1152" />
        <g
           style="fill:#ffffff;fill-opacity:1"
           id="g1154" />
        <g
           style="fill:#ffffff;fill-opacity:1"
           id="g1156" />
        <g
           style="fill:#ffffff;fill-opacity:1"
           id="g1158" />
        <g
           style="fill:#ffffff;fill-opacity:1"
           id="g1160" />
      </g>
    </g>
  </g>
</svg>
