<?xml version="1.0" encoding="UTF-8" standalone="no"?>
<!-- Created with Inkscape (http://www.inkscape.org/) -->

<svg
   xmlns:dc="http://purl.org/dc/elements/1.1/"
   xmlns:cc="http://creativecommons.org/ns#"
   xmlns:rdf="http://www.w3.org/1999/02/22-rdf-syntax-ns#"
   xmlns:svg="http://www.w3.org/2000/svg"
   xmlns="http://www.w3.org/2000/svg"
   xmlns:sodipodi="http://sodipodi.sourceforge.net/DTD/sodipodi-0.dtd"
   xmlns:inkscape="http://www.inkscape.org/namespaces/inkscape"
   width="175.743mm"
   height="99.552002mm"
   viewBox="0 0 175.74299 99.552002"
   version="1.1"
   id="svg8"
   sodipodi:docname="SplashBase.svg"
   inkscape:version="0.92.5 (2060ec1f9f, 2020-04-08)"
   inkscape:export-filename="/media/aidan/Fred7/The Department Of Goldbrickery/Raw Code/TextureJinn/Assets/Images/Vector Images/SplashBase.png"
   inkscape:export-xdpi="2000"
   inkscape:export-ydpi="2000">
  <defs
     id="defs2" />
  <sodipodi:namedview
     id="base"
     pagecolor="#ffffff"
     bordercolor="#666666"
     inkscape:pageopacity="0.0"
     inkscape:pageshadow="2"
     inkscape:zoom="2"
     inkscape:cx="304.66876"
     inkscape:cy="237.75527"
     inkscape:document-units="mm"
     inkscape:current-layer="layer1"
     showgrid="false"
     inkscape:snap-page="true"
     borderopacity="1.0"
     showborder="true"
     inkscape:window-width="1920"
     inkscape:window-height="1043"
     inkscape:window-x="0"
     inkscape:window-y="102"
     inkscape:window-maximized="1"
     inkscape:pagecheckerboard="false" />
  <metadata
     id="metadata5">
    <rdf:RDF>
      <cc:Work
         rdf:about="">
        <dc:format>image/svg+xml</dc:format>
        <dc:type
           rdf:resource="http://purl.org/dc/dcmitype/StillImage" />
        <dc:title></dc:title>
      </cc:Work>
    </rdf:RDF>
  </metadata>
  <g
     inkscape:label="Layer 1"
     inkscape:groupmode="layer"
     id="layer1"
     transform="translate(0,-197.448)">
    <path
       sodipodi:type="star"
       id="path3717"
       sodipodi:sides="6"
       sodipodi:cx="50"
       sodipodi:cy="253.69872"
       sodipodi:r1="50"
       sodipodi:r2="43.30127"
       sodipodi:arg1="1.0471976"
       sodipodi:arg2="1.5707964"
       inkscape:flatsided="true"
       inkscape:rounded="0.15"
       inkscape:randomized="0"
       d="m 74.999998,296.99999 c -6.495191,3.75 -43.50481,3.74999 -50,-1e-5 C 18.504808,293.24998 -3.6602546e-7,261.19871 0,253.69871 c 3.6602558e-7,-7.5 18.504811,-39.55127 25.000002,-43.30127 6.495191,-3.75 43.50481,-3.74999 50,1e-5 6.49519,3.75 24.999998,35.80127 24.999998,43.30127 0,7.5 -18.504811,39.55127 -25.000002,43.30127 z"
       inkscape:transform-center-y="2.0648195e-05"
       style="fill:#353535;fill-opacity:1;stroke:#ff5400;stroke-width:3;stroke-miterlimit:4;stroke-dasharray:none;stroke-opacity:1"
       transform="matrix(-0.83703426,0.48326195,-0.48326195,-0.83703426,210.4745,435.41543)"
       inkscape:transform-center-x="-1.1157933e-05" />
    <flowRoot
       xml:space="preserve"
       id="flowRoot4733"
       style="font-style:normal;font-weight:normal;font-size:40px;line-height:1.25;font-family:sans-serif;letter-spacing:0px;word-spacing:0px;fill:#ff0000;fill-opacity:1;stroke:none"
       transform="scale(0.26458333)"><flowRegion
         id="flowRegion4735"
         style="fill:#ff0000"><rect
           id="rect4737"
           width="244.5"
           height="44.5"
           x="144"
           y="913.51971"
           style="fill:#ff0000" /></flowRegion><flowPara
         id="flowPara4739">Texture KJinnet</flowPara></flowRoot>    <path
       sodipodi:type="star"
       id="path3717-7"
       sodipodi:sides="6"
       sodipodi:cx="50"
       sodipodi:cy="253.69872"
       sodipodi:r1="50"
       sodipodi:r2="43.30127"
       sodipodi:arg1="1.0471976"
       sodipodi:arg2="1.5707964"
       inkscape:flatsided="true"
       inkscape:rounded="0.15"
       inkscape:randomized="0"
       d="m 74.999998,296.99999 c -6.495191,3.75 -43.50481,3.74999 -50,-1e-5 C 18.504808,293.24998 -3.6602546e-7,261.19871 0,253.69871 c 3.6602558e-7,-7.5 18.504811,-39.55127 25.000002,-43.30127 6.495191,-3.75 43.50481,-3.74999 50,1e-5 6.49519,3.75 24.999998,35.80127 24.999998,43.30127 0,7.5 -18.504811,39.55127 -25.000002,43.30127 z"
       inkscape:transform-center-y="2.0648195e-05"
       style="fill:#353535;fill-opacity:1;stroke:#ff5400;stroke-width:3;stroke-miterlimit:4;stroke-dasharray:none;stroke-opacity:1"
       transform="matrix(-0.83703427,0.48326196,-0.48326196,-0.83703427,294.17793,435.41544)"
       inkscape:transform-center-x="-1.1157933e-05" />
    <g
       id="g943">
      <rect
         ry="3"
         y="236.06799"
         x="34.209"
         height="17.865"
         width="104.787"
         id="rect2885-1"
         style="fill:#ff5400;fill-opacity:1;fill-rule:nonzero;stroke:none;stroke-width:4.52638674;stroke-linecap:butt;stroke-miterlimit:4;stroke-dasharray:none;stroke-dashoffset:0;stroke-opacity:1;paint-order:normal" />
      <rect
         ry="3"
         y="237.51801"
         x="35.659"
         height="14.965"
         width="101.887"
         id="rect2885"
         style="fill:#353535;fill-opacity:1;fill-rule:nonzero;stroke:none;stroke-width:4.08502007;stroke-linecap:butt;stroke-miterlimit:4;stroke-dasharray:none;stroke-dashoffset:0;stroke-opacity:1;paint-order:normal" />
    </g>
    <g
       id="g997">
      <path
         inkscape:transform-center-y="-1.9919126e-06"
         inkscape:transform-center-x="-3.1652489e-06"
         transform="matrix(-0.18776146,0.10840412,-0.10840412,-0.18776146,57.776117,287.21514)"
         style="fill:#353535;fill-opacity:0;stroke:#ff5400;stroke-width:2.99804091;stroke-miterlimit:4;stroke-dasharray:none;stroke-opacity:1"
         d="m 74.999998,296.99999 c -6.495191,3.75 -43.50481,3.74999 -50,-1e-5 C 18.504808,293.24998 -3.6602546e-7,261.19871 0,253.69871 c 3.6602558e-7,-7.5 18.504811,-39.55127 25.000002,-43.30127 6.495191,-3.75 43.50481,-3.74999 50,1e-5 6.49519,3.75 24.999998,35.80127 24.999998,43.30127 0,7.5 -18.504811,39.55127 -25.000002,43.30127 z"
         inkscape:randomized="0"
         inkscape:rounded="0.15"
         inkscape:flatsided="true"
         sodipodi:arg2="1.5707964"
         sodipodi:arg1="1.0471976"
         sodipodi:r2="43.30127"
         sodipodi:r1="50"
         sodipodi:cy="253.69872"
         sodipodi:cx="50"
         sodipodi:sides="6"
         id="path3717-3"
         sodipodi:type="star" />
      <g
         inkscape:label="#g885"
         style="fill:#ffffff;fill-opacity:1;stroke:none"
         transform="matrix(0.01930161,0,0,0.01930161,15.690663,238.82397)"
         id="newfile">
        <g
           style="stroke:none"
           id="g889">
          <g
             style="stroke:none"
             id="g893">
            <path
               style="fill:#ffffff;fill-opacity:1;stroke:none"
               inkscape:connector-curvature="0"
               d="M 507.88672,469.33203 H 349.16797 c -5.89453,0 -10.66797,4.77344 -10.66797,10.66797 0,5.89062 4.77344,10.66406 10.66797,10.66406 h 158.71875 c 18.13672,0.21875 33.02734,-14.28515 33.27734,-32.42578 V 138.76953 c 0.004,-2.5625 -0.91406,-5.04297 -2.58984,-6.98437 L 427.85156,3.6875 c -2.02344,-2.34375 -4.97265,-3.69140625 -8.07422,-3.68359375 h -240 C 161.64453,-0.21875 146.75,14.289062 146.50391,32.425781 V 288 c 0,5.88672 4.77343,10.66406 10.66015,10.66406 5.89453,0 10.67188,-4.77734 10.67188,-10.66406 V 32.425781 c 0.2539,-6.355469 5.58984,-11.308593 11.9414,-11.089843 h 221.9336 l 0.79297,112.175782 c 0.13671,14.64453 12.02343,26.44531 26.66406,26.48828 h 90.66406 v 298.23828 c -0.25391,6.35156 -5.59375,11.30859 -11.94531,11.09375 z m -84.05078,-336 -0.69531,-102.546874 93.16796,107.878904 h -87.14062 c -2.94531,0 -5.33203,-2.38672 -5.33203,-5.33203 z m 0,0"
               id="path871" />
            <path
               style="fill:#ffffff;fill-opacity:1;stroke:none"
               inkscape:connector-curvature="0"
               d="m 130.5,640 h 53.33594 C 198.5625,640 210.5,628.05469 210.5,613.32812 v -79.99609 h 80 c 14.72656,0 26.66406,-11.94141 26.66406,-26.66797 v -53.33203 c 0,-14.72656 -11.9375,-26.66797 -26.66406,-26.66797 h -80 v -80 C 210.5,331.94141 198.5625,320 183.83594,320 H 130.5 c -14.72656,0 -26.66406,11.94141 -26.66406,26.66406 v 80 H 23.835938 c -14.730469,0 -26.667969,11.94141 -26.667969,26.66797 v 53.33203 c 0,14.72657 11.9375,26.66797 26.667969,26.66797 h 80.000002 v 79.99609 C 103.83594,628.05469 115.77344,640 130.5,640 Z M 18.5,506.66406 V 453.33203 C 18.5,450.38672 20.886719,448 23.835938,448 H 114.5 c 5.89453,0 10.66797,-4.77734 10.66797,-10.67187 v -90.66407 c 0,-2.9414 2.39062,-5.32812 5.33203,-5.32812 h 53.33594 c 2.94531,0 5.33203,2.38672 5.33203,5.32812 v 90.66407 c 0,5.89453 4.77344,10.67187 10.66406,10.67187 H 290.5 c 2.94531,0 5.33203,2.38672 5.33203,5.33203 v 53.33203 c 0,2.94532 -2.38672,5.33203 -5.33203,5.33203 h -90.66797 c -5.89062,0 -10.66406,4.77735 -10.66406,10.67188 v 90.66016 c 0,2.94531 -2.38672,5.33203 -5.33203,5.33203 H 130.5 c -2.94141,0 -5.33203,-2.38672 -5.33203,-5.33203 v -90.66016 c 0,-5.89453 -4.77344,-10.67188 -10.66797,-10.67188 H 23.835938 c -2.949219,0 -5.335938,-2.38671 -5.335938,-5.33203 z m 0,0"
               id="path873" />
          </g>
        </g>
      </g>
    </g>
    <g
       id="g989">
      <g
         id="g1615">
        <path
           sodipodi:type="star"
           id="path3717-3-9"
           sodipodi:sides="6"
           sodipodi:cx="50"
           sodipodi:cy="253.69872"
           sodipodi:r1="50"
           sodipodi:r2="43.30127"
           sodipodi:arg1="1.0471976"
           sodipodi:arg2="1.5707964"
           inkscape:flatsided="true"
           inkscape:rounded="0.15"
           inkscape:randomized="0"
           d="m 74.999998,296.99999 c -6.495191,3.75 -43.50481,3.74999 -50,-1e-5 C 18.504808,293.24998 -3.6602546e-7,261.19871 0,253.69871 c 3.6602558e-7,-7.5 18.504811,-39.55127 25.000002,-43.30127 6.495191,-3.75 43.50481,-3.74999 50,1e-5 6.49519,3.75 24.999998,35.80127 24.999998,43.30127 0,7.5 -18.504811,39.55127 -25.000002,43.30127 z"
           style="fill:#353535;fill-opacity:0;stroke:#ff5400;stroke-width:2.99804091;stroke-miterlimit:4;stroke-dasharray:none;stroke-opacity:1"
           transform="matrix(-0.18776431,0.1084041,-0.10840577,-0.18776142,189.20963,287.21522)"
           inkscape:transform-center-x="-3.1652489e-06"
           inkscape:transform-center-y="-1.9919126e-06" />
        <g
           id="g1189"
           transform="matrix(0.175,0,0,0.175,147.069,239.75)"
           style="fill:#ffffff;fill-opacity:1">
          <g
             id="g1130"
             style="fill:#ffffff;fill-opacity:1">
            <path
               id="path1122"
               d="M 57.49,27 H 54 V 20.732 C 54,19.226 52.774,18 51.268,18 H 48 v -2.414 l -0.495,-0.495 c -0.001,0 -0.001,-10e-4 -0.001,-0.002 L 40.208,7.793 32.414,0 H 8 V 11 H 2.732 C 1.226,11 0,12.226 0,13.732 v 43.687 h 0.006 c -0.005,0.563 0.17,1.114 0.522,1.575 C 1.018,59.634 1.76,60 2.565,60 h 44.759 c 1.156,0 2.174,-0.779 2.45,-1.813 L 60,30.149 V 29.972 C 60,28.25 58.944,27 57.49,27 Z M 51.268,20 C 51.671,20 52,20.328 52,20.732 V 27 H 48 V 20 Z M 33,3.415 44.586,15 H 33 Z M 10,2 h 21 v 15 h 15 v 1 9 H 12.731 c -0.143,0 -0.284,0.012 -0.422,0.035 -0.974,0.162 -1.786,0.872 -2.028,1.778 L 10,29.585 V 11 Z M 2,13.732 C 2,13.328 2.329,13 2.732,13 H 8 V 35.035 L 2,51.399 Z M 47.869,57.583 C 47.803,57.828 47.579,58 47.324,58 H 2.565 C 2.322,58 2.18,57.861 2.117,57.778 2.054,57.696 1.957,57.522 1.994,57.37 L 8,40.898 v 0.005 l 4.16,-11.404 0.026,-0.082 C 12.252,29.172 12.477,29 12.731,29 H 46 h 2 6 3.49 c 0.38,0 0.477,0.546 0.502,0.819 z"
               inkscape:connector-curvature="0"
               style="fill:#ffffff;fill-opacity:1" />
            <path
               id="path1124"
               d="m 16,17 h 10 c 0.552,0 1,-0.447 1,-1 0,-0.553 -0.448,-1 -1,-1 H 16 c -0.552,0 -1,0.447 -1,1 0,0.553 0.448,1 1,1 z"
               inkscape:connector-curvature="0"
               style="fill:#ffffff;fill-opacity:1" />
            <path
               id="path1126"
               d="M 16,10 H 26 C 26.552,10 27,9.553 27,9 27,8.447 26.552,8 26,8 H 16 c -0.552,0 -1,0.447 -1,1 0,0.553 0.448,1 1,1 z"
               inkscape:connector-curvature="0"
               style="fill:#ffffff;fill-opacity:1" />
            <path
               id="path1128"
               d="m 16,24 h 24 c 0.552,0 1,-0.447 1,-1 0,-0.553 -0.448,-1 -1,-1 H 16 c -0.552,0 -1,0.447 -1,1 0,0.553 0.448,1 1,1 z"
               inkscape:connector-curvature="0"
               style="fill:#ffffff;fill-opacity:1" />
          </g>
          <g
             id="g1132"
             style="fill:#ffffff;fill-opacity:1" />
          <g
             id="g1134"
             style="fill:#ffffff;fill-opacity:1" />
          <g
             id="g1136"
             style="fill:#ffffff;fill-opacity:1" />
          <g
             id="g1138"
             style="fill:#ffffff;fill-opacity:1" />
          <g
             id="g1140"
             style="fill:#ffffff;fill-opacity:1" />
          <g
             id="g1142"
             style="fill:#ffffff;fill-opacity:1" />
          <g
             id="g1144"
             style="fill:#ffffff;fill-opacity:1" />
          <g
             id="g1146"
             style="fill:#ffffff;fill-opacity:1" />
          <g
             id="g1148"
             style="fill:#ffffff;fill-opacity:1" />
          <g
             id="g1150"
             style="fill:#ffffff;fill-opacity:1" />
          <g
             id="g1152"
             style="fill:#ffffff;fill-opacity:1" />
          <g
             id="g1154"
             style="fill:#ffffff;fill-opacity:1" />
          <g
             id="g1156"
             style="fill:#ffffff;fill-opacity:1" />
          <g
             id="g1158"
             style="fill:#ffffff;fill-opacity:1" />
          <g
             id="g1160"
             style="fill:#ffffff;fill-opacity:1" />
        </g>
      </g>
    </g>
    <text
       xml:space="preserve"
       style="font-style:normal;font-weight:normal;font-size:1.05833328px;line-height:1.25;font-family:sans-serif;letter-spacing:0px;word-spacing:0px;fill:#ffffff;fill-opacity:1;stroke:none;stroke-width:0.26458332"
       x="36.129833"
       y="251.39481"
       id="text2065"><tspan
         sodipodi:role="line"
         id="tspan2063"
         x="36.129833"
         y="251.39481"
         style="font-style:normal;font-variant:normal;font-weight:normal;font-stretch:normal;font-size:17.63888931px;font-family:Quantico;-inkscape-font-specification:Quantico;fill:#ffffff;fill-opacity:1;stroke-width:0.26458332">Texture Jinn</tspan></text>
    <text
       xml:space="preserve"
       style="font-style:normal;font-weight:normal;font-size:1.05833328px;line-height:1.25;font-family:sans-serif;letter-spacing:0px;word-spacing:0px;fill:#d9d9d9;fill-opacity:1;stroke:none;stroke-width:0.26458332"
       x="99.899567"
       y="243.62399"
       id="text2069"
       transform="rotate(20.139176)"><tspan
         sodipodi:role="line"
         id="tspan2067"
         x="99.899567"
         y="243.62399"
         style="font-style:normal;font-variant:normal;font-weight:normal;font-stretch:normal;font-size:5.29166651px;font-family:Quantico;-inkscape-font-specification:Quantico;fill:#d9d9d9;fill-opacity:1;stroke-width:0.26458332">made with platonic love</tspan></text>
    <text
       xml:space="preserve"
       style="font-style:normal;font-weight:normal;font-size:1.05833328px;line-height:1.25;font-family:sans-serif;letter-spacing:0px;word-spacing:0px;fill:#000000;fill-opacity:1;stroke:none;stroke-width:0.26458332"
       x="53.181248"
       y="180.98021"
       id="text2073"><tspan
         sodipodi:role="line"
         id="tspan2071"
         x="53.181248"
         y="181.91658"
         style="stroke-width:0.26458332" /></text>
    <text
       xml:space="preserve"
       style="font-style:normal;font-weight:normal;font-size:1.05833328px;line-height:1.25;font-family:sans-serif;letter-spacing:0px;word-spacing:0px;fill:#d9d9d9;fill-opacity:1;stroke:none;stroke-width:0.26458332"
       x="28.379927"
       y="251.1366"
       id="text2077"
       transform="rotate(-21.819236)"><tspan
         sodipodi:role="line"
         id="tspan2075"
         x="28.379927"
         y="251.1366"
         style="font-style:normal;font-variant:normal;font-weight:normal;font-stretch:normal;font-size:5.29166651px;font-family:Quantico;-inkscape-font-specification:Quantico;fill:#d9d9d9;fill-opacity:1;stroke-width:0.26458332">by Aidan</tspan></text>
    <text
       xml:space="preserve"
       style="font-style:normal;font-weight:normal;font-size:1.05833328px;line-height:1.25;font-family:sans-serif;text-align:center;letter-spacing:0px;word-spacing:0px;text-anchor:middle;fill:#3c6e71;fill-opacity:1;stroke:none;stroke-width:0.26458332"
       x="-49.544483"
       y="217.50221"
       id="text2081"
       transform="rotate(-22.519639)"><tspan
         sodipodi:role="line"
         id="tspan2079"
         x="-49.544483"
         y="217.50221"
         style="font-style:normal;font-variant:normal;font-weight:normal;font-stretch:normal;font-size:5.29166651px;font-family:Quantico;-inkscape-font-specification:Quantico;text-align:center;text-anchor:middle;fill:#3c6e71;fill-opacity:1;stroke-width:0.26458332">tj_text_s:1</tspan></text>
    <text
       xml:space="preserve"
       style="font-style:normal;font-weight:normal;font-size:1.05833328px;line-height:1.25;font-family:sans-serif;text-align:center;letter-spacing:0px;word-spacing:0px;text-anchor:middle;fill:#3c6e71;fill-opacity:1;stroke:none;stroke-width:0.26458332"
       x="225.37827"
       y="196.41344"
       id="text2081-0"
       transform="rotate(24.794437)"><tspan
         sodipodi:role="line"
         id="tspan2079-5"
         x="225.37827"
         y="196.41344"
         style="font-style:normal;font-variant:normal;font-weight:normal;font-stretch:normal;font-size:5.29166651px;font-family:Quantico;-inkscape-font-specification:Quantico;text-align:center;text-anchor:middle;fill:#3c6e71;fill-opacity:1;stroke-width:0.26458332">tj_text_s:2</tspan></text>
  </g>
</svg>
