<?xml version="1.0" encoding="UTF-8" standalone="no"?>
<!-- Created with Inkscape (http://www.inkscape.org/) -->

<svg
   xmlns:dc="http://purl.org/dc/elements/1.1/"
   xmlns:cc="http://creativecommons.org/ns#"
   xmlns:rdf="http://www.w3.org/1999/02/22-rdf-syntax-ns#"
   xmlns:svg="http://www.w3.org/2000/svg"
   xmlns="http://www.w3.org/2000/svg"
   xmlns:sodipodi="http://sodipodi.sourceforge.net/DTD/sodipodi-0.dtd"
   xmlns:inkscape="http://www.inkscape.org/namespaces/inkscape"
   width="20.646mm"
   height="22.330999mm"
   viewBox="0 0 20.646 22.330999"
   version="1.1"
   id="svg896"
   sodipodi:docname="SplashNewFileButton.svg"
   inkscape:version="0.92.5 (2060ec1f9f, 2020-04-08)">
  <defs
     id="defs890" />
  <sodipodi:namedview
     id="base"
     pagecolor="#ffffff"
     bordercolor="#666666"
     borderopacity="1.0"
     inkscape:pageopacity="0.0"
     inkscape:pageshadow="2"
     inkscape:zoom="7.9195959"
     inkscape:cx="33.944672"
     inkscape:cy="45.617393"
     inkscape:document-units="mm"
     inkscape:current-layer="g997"
     showgrid="false"
     inkscape:pagecheckerboard="true"
     inkscape:window-width="1920"
     inkscape:window-height="1043"
     inkscape:window-x="0"
     inkscape:window-y="102"
     inkscape:window-maximized="1" />
  <metadata
     id="metadata893">
    <rdf:RDF>
      <cc:Work
         rdf:about="">
        <dc:format>image/svg+xml</dc:format>
        <dc:type
           rdf:resource="http://purl.org/dc/dcmitype/StillImage" />
        <dc:title></dc:title>
      </cc:Work>
    </rdf:RDF>
  </metadata>
  <g
     inkscape:label="Layer 1"
     inkscape:groupmode="layer"
     id="layer1"
     transform="translate(0,-274.669)">
    <g
       transform="translate(-141.99601,40.833996)"
       id="g989">
      <g
         transform="translate(131.4328,8.5823386e-5)"
         id="g997">
        <path
           inkscape:transform-center-y="-1.9919126e-06"
           inkscape:transform-center-x="-3.1652489e-06"
           transform="matrix(-0.18776146,0.10840412,-0.10840412,-0.18776146,57.776117,287.21514)"
           style="fill:#353535;fill-opacity:0;stroke:#ff5400;stroke-width:2.99804091;stroke-miterlimit:4;stroke-dasharray:none;stroke-opacity:1"
           d="m 74.999998,296.99999 c -6.495191,3.75 -43.50481,3.74999 -50,-1e-5 C 18.504808,293.24998 -3.6602546e-7,261.19871 0,253.69871 c 3.6602558e-7,-7.5 18.504811,-39.55127 25.000002,-43.30127 6.495191,-3.75 43.50481,-3.74999 50,1e-5 6.49519,3.75 24.999998,35.80127 24.999998,43.30127 0,7.5 -18.504811,39.55127 -25.000002,43.30127 z"
           inkscape:randomized="0"
           inkscape:rounded="0.15"
           inkscape:flatsided="true"
           sodipodi:arg2="1.5707964"
           sodipodi:arg1="1.0471976"
           sodipodi:r2="43.30127"
           sodipodi:r1="50"
           sodipodi:cy="253.69872"
           sodipodi:cx="50"
           sodipodi:sides="6"
           id="path3717-3"
           sodipodi:type="star" />
        <g
           inkscape:label="#g885"
           style="fill:#ffffff;fill-opacity:1;stroke:none"
           transform="matrix(0.01930161,0,0,0.01930161,15.690663,238.82397)"
           id="newfile">
          <g
             style="stroke:none"
             id="g889">
            <g
               style="stroke:none"
               id="g893">
              <path
                 style="fill:#ffffff;fill-opacity:1;stroke:none"
                 inkscape:connector-curvature="0"
                 d="M 507.88672,469.33203 H 349.16797 c -5.89453,0 -10.66797,4.77344 -10.66797,10.66797 0,5.89062 4.77344,10.66406 10.66797,10.66406 h 158.71875 c 18.13672,0.21875 33.02734,-14.28515 33.27734,-32.42578 V 138.76953 c 0.004,-2.5625 -0.91406,-5.04297 -2.58984,-6.98437 L 427.85156,3.6875 c -2.02344,-2.34375 -4.97265,-3.69140625 -8.07422,-3.68359375 h -240 C 161.64453,-0.21875 146.75,14.289062 146.50391,32.425781 V 288 c 0,5.88672 4.77343,10.66406 10.66015,10.66406 5.89453,0 10.67188,-4.77734 10.67188,-10.66406 V 32.425781 c 0.2539,-6.355469 5.58984,-11.308593 11.9414,-11.089843 h 221.9336 l 0.79297,112.175782 c 0.13671,14.64453 12.02343,26.44531 26.66406,26.48828 h 90.66406 v 298.23828 c -0.25391,6.35156 -5.59375,11.30859 -11.94531,11.09375 z m -84.05078,-336 -0.69531,-102.546874 93.16796,107.878904 h -87.14062 c -2.94531,0 -5.33203,-2.38672 -5.33203,-5.33203 z m 0,0"
                 id="path871" />
              <path
                 style="fill:#ffffff;fill-opacity:1;stroke:none"
                 inkscape:connector-curvature="0"
                 d="m 130.5,640 h 53.33594 C 198.5625,640 210.5,628.05469 210.5,613.32812 v -79.99609 h 80 c 14.72656,0 26.66406,-11.94141 26.66406,-26.66797 v -53.33203 c 0,-14.72656 -11.9375,-26.66797 -26.66406,-26.66797 h -80 v -80 C 210.5,331.94141 198.5625,320 183.83594,320 H 130.5 c -14.72656,0 -26.66406,11.94141 -26.66406,26.66406 v 80 H 23.835938 c -14.730469,0 -26.667969,11.94141 -26.667969,26.66797 v 53.33203 c 0,14.72657 11.9375,26.66797 26.667969,26.66797 h 80.000002 v 79.99609 C 103.83594,628.05469 115.77344,640 130.5,640 Z M 18.5,506.66406 V 453.33203 C 18.5,450.38672 20.886719,448 23.835938,448 H 114.5 c 5.89453,0 10.66797,-4.77734 10.66797,-10.67187 v -90.66407 c 0,-2.9414 2.39062,-5.32812 5.33203,-5.32812 h 53.33594 c 2.94531,0 5.33203,2.38672 5.33203,5.32812 v 90.66407 c 0,5.89453 4.77344,10.67187 10.66406,10.67187 H 290.5 c 2.94531,0 5.33203,2.38672 5.33203,5.33203 v 53.33203 c 0,2.94532 -2.38672,5.33203 -5.33203,5.33203 h -90.66797 c -5.89062,0 -10.66406,4.77735 -10.66406,10.67188 v 90.66016 c 0,2.94531 -2.38672,5.33203 -5.33203,5.33203 H 130.5 c -2.94141,0 -5.33203,-2.38672 -5.33203,-5.33203 v -90.66016 c 0,-5.89453 -4.77344,-10.67188 -10.66797,-10.67188 H 23.835938 c -2.949219,0 -5.335938,-2.38671 -5.335938,-5.33203 z m 0,0"
                 id="path873" />
            </g>
          </g>
        </g>
      </g>
    </g>
  </g>
</svg>
